# xmcd
#
# Track frame offsets:
#	150
#	20993
#	38151
#	55583
#	72189
#	91355
#	109212
#	123479
#	140663
#	158290
#	169877
#	182514
#	197580
#	211614
#	228566
#	245661
#	262244
#	278365
#
# Disc length: 3919
#
# Revision: 1
# Processed by: cddbd v1.5.2PL0 Copyright (c) Steve Scherf et al.
# Submitted via: kJams Pro (development) 1.0patch46
#
DISCID=fc0f4d12
DTITLE=Various Artist - ZOOM VOL 10
DYEAR=2002
DGENRE=Karaoke
TTITLE0=Sarah Brightman And Hot Gossip - I Lost My Heart To A Starship Trooper
TTITLE1=Hue And Cry - Labour Of Love
TTITLE2=Del Amitri - Spit In The Rain,
TTITLE3=Smokie - Don't Play Your Rock 'n' Roll To Me
TTITLE4=Smokie - For A Few Dollars More
TTITLE5=Bruce Springsteen - Sherry Darling
TTITLE6=Devo - Girl U Want
TTITLE7=Devo - Beautiful World
TTITLE8=Mcguinness Flint - When I'm Dead And Gone
TTITLE9=T. Rex - Love To Boogie
TTITLE10=Drifters - Hello Happiness
TTITLE11=Kirsty Maccoll - There's A Guy Works Down The Chip Shop
TTITLE12=Tom Jones - My Mother's Eyes
TTITLE13=Tony Christie - Las Vagas
TTITLE14=Tony Christie - I Did What I Did For Maria
TTITLE15=Tony Christie - Drive Safely Darling
TTITLE16=Tony Christie - Is This The Way To Amarillo
TTITLE17=Tony Christie - Avenues And Alleyways
EXTD=
EXTT0=
EXTT1=
EXTT2=
EXTT3=
EXTT4=
EXTT5=
EXTT6=
EXTT7=
EXTT8=
EXTT9=
EXTT10=
EXTT11=
EXTT12=
EXTT13=
EXTT14=
EXTT15=
EXTT16=
EXTT17=
PLAYORDER=
